<!DOCTYPE svg PUBLIC "-//W3C//DTD SVG 1.1//EN" "http://www.w3.org/Graphics/SVG/1.1/DTD/svg11.dtd">
<!-- Uploaded to: SVG Repo, www.svgrepo.com, Transformed by: SVG Repo Mixer Tools -->
<svg width="800px" height="800px" viewBox="0 0 16 16" xmlns="http://www.w3.org/2000/svg" fill="none">
<g id="SVGRepo_bgCarrier" stroke-width="0"/>
<g id="SVGRepo_tracerCarrier" stroke-linecap="round" stroke-linejoin="round"/>
<g id="SVGRepo_iconCarrier"> <g fill="#d1d5d8"> <path d="M6.25 5a.75.75 0 01.75.75v4.5a.75.75 0 01-1.5 0v-4.5A.75.75 0 016.25 5zM10.5 5.75a.75.75 0 00-1.5 0v4.5a.75.75 0 001.5 0v-4.5z"/> <path fill-rule="evenodd" d="M0 8a8 8 0 1116 0A8 8 0 010 8zm8-6.5a6.5 6.5 0 100 13 6.5 6.5 0 000-13z" clip-rule="evenodd"/> </g> </g>
</svg>