<svg width="43" height="43" viewBox="0 0 43 43" fill="none" xmlns="http://www.w3.org/2000/svg">
<path fill-rule="evenodd" clip-rule="evenodd" d="M38.7687 21.9572C38.7687 31.4751 31.0529 39.191 21.5349 39.191C12.017 39.191 4.30115 31.4751 4.30115 21.9572C4.30115 12.4392 12.017 4.72339 21.5349 4.72339C31.0529 4.72339 38.7687 12.4392 38.7687 21.9572ZM15.5031 15.0637C15.5031 14.5878 15.8889 14.202 16.3648 14.202H18.9499C19.4258 14.202 19.8116 14.5878 19.8116 15.0637V28.8507C19.8116 29.3266 19.4258 29.7124 18.9499 29.7124H16.3648C15.8889 29.7124 15.5031 29.3266 15.5031 28.8507V15.0637ZM24.12 14.202C23.6441 14.202 23.2583 14.5878 23.2583 15.0637V28.8507C23.2583 29.3266 23.6441 29.7124 24.12 29.7124H26.7051C27.181 29.7124 27.5668 29.3266 27.5668 28.8507V15.0637C27.5668 14.5878 27.181 14.202 26.7051 14.202H24.12Z" fill="white"/>
</svg>
