<svg width="29" height="29" viewBox="0 0 29 29" fill="none" xmlns="http://www.w3.org/2000/svg">
<path opacity="0.7" fill-rule="evenodd" clip-rule="evenodd" d="M14.4703 8.8691L8.7319 12.2447C7.03271 13.2442 7.03271 15.7015 8.7319 16.701L14.4703 20.0765V8.8691ZM7.85811 10.7592C5.02614 12.4251 5.02614 16.5205 7.85811 18.1864L14.8951 22.3258C15.4696 22.6637 16.1937 22.2496 16.1937 21.5831V7.36251C16.1937 6.69606 15.4696 6.28189 14.8951 6.61979L7.85811 10.7592ZM17.0554 8.44098C17.9041 8.44098 18.7445 8.60814 19.5286 8.93292C20.3127 9.2577 21.0251 9.73373 21.6252 10.3338C22.2254 10.934 22.7014 11.6464 23.0262 12.4305C23.351 13.2146 23.5181 14.055 23.5181 14.9037C23.5181 15.7523 23.351 16.5927 23.0262 17.3768C22.7014 18.1609 22.2254 18.8733 21.6252 19.4735C21.0251 20.0736 20.3127 20.5496 19.5286 20.8744C18.7445 21.1992 17.9041 21.3663 17.0554 21.3663V19.6353C17.6768 19.6353 18.2921 19.5129 18.8662 19.2751C19.4402 19.0373 19.9618 18.6888 20.4012 18.2494C20.8406 17.81 21.1891 17.2884 21.4269 16.7144C21.6647 16.1403 21.7871 15.525 21.7871 14.9037C21.7871 14.2823 21.6647 13.667 21.4269 13.0929C21.1891 12.5189 20.8406 11.9973 20.4012 11.5579C19.9618 11.1185 19.4402 10.77 18.8662 10.5322C18.2921 10.2944 17.6768 10.172 17.0554 10.172V8.44098ZM18.9446 12.9934C18.4868 12.4412 17.8433 12.0514 17.1195 11.8877L17.0554 17.9196C17.7826 17.7695 18.4342 17.3919 18.9037 16.8485C19.3732 16.305 19.6329 15.6279 19.6403 14.9276C19.6478 14.2274 19.4025 13.5455 18.9446 12.9934Z" fill="white"/>
</svg>
